# 3ds Max Wavefront OBJ Exporter v0.97b - (c)2007 guruware
# File Created: 10.01.2018 11:37:44

#
# object Plane128
#

v  -378.1280 41.7586 410.6488
v  -107.1742 41.7586 410.6488
v  -107.1742 41.7586 182.7538
v  -378.1280 41.7586 182.7538
v  112.7115 41.7586 410.6488
v  112.7115 41.7586 182.7538
v  321.9860 41.7586 410.6488
v  321.9860 41.7586 182.7538
v  -530.1212 41.7586 182.7538
v  -378.1280 41.7586 4.4606
v  -530.1212 41.7586 4.4606
v  -107.1742 41.7586 4.4606
v  112.7115 41.7586 4.4606
v  321.9860 41.7586 4.4606
v  -378.1280 41.7586 -130.4520
v  -530.1212 41.7586 -130.4520
v  -107.1742 41.7586 -130.4520
v  112.7115 41.7586 -130.4520
v  321.9860 41.7586 -130.4520
v  -378.1280 41.7586 -398.3867
v  -530.1212 41.7586 -398.3867
v  -107.1742 41.7586 -398.3867
# 22 vertices

vn 0.0000 1.0000 -0.0000
# 1 vertex normals

vt 0.1784 0.0233 0.0000
vt 0.4964 0.0233 0.0000
vt 0.4964 0.2908 0.0000
vt 0.1784 0.2908 0.0000
vt 0.7544 0.0233 0.0000
vt 0.7544 0.2908 0.0000
vt 1.0000 0.0233 0.0000
vt 1.0000 0.2908 0.0000
vt 0.0000 0.2908 0.0000
vt 0.1784 0.5000 0.0000
vt 0.0000 0.5000 0.0000
vt 0.4964 0.5000 0.0000
vt 0.7544 0.5000 0.0000
vt 1.0000 0.5000 0.0000
vt 0.1784 0.6583 0.0000
vt -0.0000 0.6583 0.0000
vt 0.4964 0.6583 0.0000
vt 0.7544 0.6583 0.0000
vt 1.0000 0.6583 0.0000
vt 0.1784 0.9728 0.0000
vt -0.0000 0.9728 0.0000
vt 0.4964 0.9728 0.0000
# 22 texture coords

g Plane128
s 1
f 1/1/1 2/2/1 3/3/1 4/4/1 
f 2/2/1 5/5/1 6/6/1 3/3/1 
f 5/5/1 7/7/1 8/8/1 6/6/1 
f 9/9/1 4/4/1 10/10/1 11/11/1 
f 4/4/1 3/3/1 12/12/1 10/10/1 
f 3/3/1 6/6/1 13/13/1 12/12/1 
f 6/6/1 8/8/1 14/14/1 13/13/1 
f 11/11/1 10/10/1 15/15/1 16/16/1 
f 10/10/1 12/12/1 17/17/1 15/15/1 
f 12/12/1 13/13/1 18/18/1 17/17/1 
f 13/13/1 14/14/1 19/19/1 18/18/1 
f 16/16/1 15/15/1 20/20/1 21/21/1 
f 15/15/1 17/17/1 22/22/1 20/20/1 
# 13 polygons

